HIERARCHY
ROOT Hips
{
 OFFSET 0.000000 0.000000 0.000000
 CHANNELS 6 Xposition Yposition Zposition Yrotation Xrotation Zrotation
 JOINT Chest
 {
  OFFSET 0.000000 9.585900 0.002600
  CHANNELS 3 Yrotation Xrotation Zrotation
  JOINT Chest2
  {
   OFFSET 0.000000 9.601200 -0.005300
   CHANNELS 3 Yrotation Xrotation Zrotation
   JOINT Chest3
   {
    OFFSET 0.000000 9.561800 0.000000
    CHANNELS 3 Yrotation Xrotation Zrotation
    JOINT Chest4
    {
     OFFSET 0.000000 9.552100 0.000000
     CHANNELS 3 Yrotation Xrotation Zrotation
     JOINT Neck
     {
      OFFSET 0.000000 14.453000 0.000000
      CHANNELS 3 Yrotation Xrotation Zrotation
      JOINT Head
      {
       OFFSET 0.000000 8.936500 -0.011300
       CHANNELS 3 Yrotation Xrotation Zrotation
       End Site
       {
        OFFSET 0.000000 17.073600 -0.006000
       }
      }
     }
     JOINT RightCollar
     {
      OFFSET -2.921100 9.558500 0.000000
      CHANNELS 3 Yrotation Xrotation Zrotation
      JOINT RightShoulder
      {
       OFFSET -13.519700 0.000000 0.000000
       CHANNELS 3 Yrotation Xrotation Zrotation
       JOINT RightElbow
       {
        OFFSET 0.000000 -29.696600 0.000000
        CHANNELS 3 Yrotation Xrotation Zrotation
        JOINT RightWrist
        {
         OFFSET 0.000000 -24.004700 0.000000
         CHANNELS 3 Yrotation Xrotation Zrotation
         End Site
         {
          OFFSET 0.000000 -17.728500 0.000000
         }
        }
       }
      }
     }
     JOINT LeftCollar
     {
      OFFSET 2.921100 9.558500 0.000000
      CHANNELS 3 Yrotation Xrotation Zrotation
      JOINT LeftShoulder
      {
       OFFSET 13.519700 0.000000 0.000000
       CHANNELS 3 Yrotation Xrotation Zrotation
       JOINT LeftElbow
       {
        OFFSET 0.000000 -29.696600 0.000000
        CHANNELS 3 Yrotation Xrotation Zrotation
        JOINT LeftWrist
        {
         OFFSET 0.000000 -24.004700 0.000000
         CHANNELS 3 Yrotation Xrotation Zrotation
         End Site
         {
          OFFSET 0.000000 -17.728500 0.000000
         }
        }
       }
      }
     }
    }
   }
  }
 }
 JOINT RightHip
 {
  OFFSET -7.771700 -0.012900 -0.001300
  CHANNELS 3 Yrotation Xrotation Zrotation
  JOINT RightKnee
  {
   OFFSET 0.000000 -40.869800 0.001200
   CHANNELS 3 Yrotation Xrotation Zrotation
   JOINT RightAnkle
   {
    OFFSET 0.000000 -39.717900 0.002100
    CHANNELS 3 Yrotation Xrotation Zrotation
    JOINT RightToe
    {
     OFFSET 0.000000 -4.965400 11.033500
     CHANNELS 3 Yrotation Xrotation Zrotation
     End Site
     {
      OFFSET 0.000000 -1.423100 5.872300
     }
    }
   }
  }
 }
 JOINT LeftHip
 {
  OFFSET 7.771700 -0.012900 -0.001300
  CHANNELS 3 Yrotation Xrotation Zrotation
  JOINT LeftKnee
  {
   OFFSET 0.000000 -40.869800 0.001200
   CHANNELS 3 Yrotation Xrotation Zrotation
   JOINT LeftAnkle
   {
    OFFSET 0.000000 -39.717900 0.002100
    CHANNELS 3 Yrotation Xrotation Zrotation
    JOINT LeftToe
    {
     OFFSET 0.000000 -4.965400 11.033500
     CHANNELS 3 Yrotation Xrotation Zrotation
     End Site
     {
      OFFSET 0.000000 -1.423100 5.872300
     }
    }
   }
  }
 }
}
MOTION
Frames: 16
Frame Time: 0.008333
-35.165972 43.836607 35.612238 -178.573425 -26.434407 -0.756397 -2.873979 16.162661 0.951850 -0.303237 1.638639 0.206672 -0.505647 2.741193 0.338739 -2.503832 14.321830 1.512869 -1.812581 14.602162 -4.200175 -0.966112 -10.317509 -4.038723 7.829932 1.954578 -4.537141 -0.795965 -8.728942 -9.317115 -132.667509 -55.822327 166.053239 -5.875231 0.899043 -26.540407 -16.872152 -0.684196 -4.374423 -0.345921 -11.331429 7.063576 125.304876 -54.281165 -164.909333 6.056761 3.019089 -18.257040 -5.389175 -66.435655 8.215693 -156.867569 70.486360 -156.250855 -12.291930 -24.562666 8.664776 0.445457 -1.250370 0.236149 5.470386 -55.338521 -9.192596 176.336193 64.160156 175.969936 -3.267260 -33.802849 5.280830 0.017863 0.144752 0.015742
-35.170525 43.837201 35.608646 -178.552756 -26.450810 -0.760481 -2.893135 16.178307 0.946611 -0.300465 1.634577 0.210080 -0.506111 2.741184 0.339598 -2.502082 14.317327 1.528502 -1.818124 14.598113 -4.213892 -0.963610 -10.324274 -4.043189 7.827667 1.951308 -4.548035 -0.818954 -8.722308 -9.300459 -132.668802 -55.759075 166.080781 -5.867466 0.891197 -26.410598 -16.877574 -0.673217 -4.382711 -0.307165 -11.327421 7.031530 125.327535 -54.287065 -164.933402 6.028172 3.016214 -18.313279 -5.359361 -66.419352 8.179763 -156.910674 70.478026 -156.295096 -12.289686 -24.573286 8.676774 0.450978 -1.244506 0.230992 5.468456 -55.320242 -9.205354 176.344688 64.161716 175.975980 -3.269526 -33.802720 5.291149 0.020108 0.145112 0.013998
-35.171946 43.836205 35.607767 -178.550698 -26.449475 -0.771219 -2.887544 16.171574 0.962675 -0.302097 1.636058 0.209568 -0.507731 2.742951 0.337913 -2.503061 14.315059 1.535053 -1.816285 14.587335 -4.215770 -0.957912 -10.349798 -4.046373 7.826809 1.943648 -4.550194 -0.834362 -8.720177 -9.288105 -132.674793 -55.693678 166.113049 -5.855114 0.885905 -26.278910 -16.882211 -0.667653 -4.377723 -0.253560 -11.303091 6.995572 125.364879 -54.285414 -164.985003 6.035706 3.016220 -18.354732 -5.368995 -66.421063 8.197845 -156.919495 70.473854 -156.301864 -12.287741 -24.580909 8.676874 0.455824 -1.237475 0.231824 5.458731 -55.324464 -9.192614 176.360035 64.159171 175.989602 -3.260094 -33.804812 5.290489 0.017719 0.146177 0.013916
-35.174117 43.834941 35.606969 -178.551473 -26.448291 -0.773306 -2.881088 16.163255 0.974006 -0.305530 1.640080 0.207199 -0.508480 2.743749 0.334762 -2.504777 14.314200 1.540519 -1.816750 14.579550 -4.217788 -0.956788 -10.353270 -4.052038 7.825135 1.939750 -4.553991 -0.840574 -8.723955 -9.283052 -132.671261 -55.663853 166.123793 -5.839899 0.842322 -26.129048 -16.889828 -0.667166 -4.371085 -0.226957 -11.292205 6.977958 125.400237 -54.290422 -164.999293 6.029470 3.013150 -18.423881 -5.361363 -66.424471 8.199712 -156.929994 70.468597 -156.309467 -12.298176 -24.594407 8.680160 0.472384 -1.224374 0.233789 5.463522 -55.326689 -9.193899 176.382412 64.158688 176.010526 -3.250710 -33.807237 5.291027 0.017588 0.148529 0.015044
-35.178546 43.834098 35.604972 -178.545165 -26.455836 -0.763024 -2.890340 16.167747 0.965823 -0.305442 1.641177 0.204351 -0.507323 2.742317 0.338016 -2.508363 14.315717 1.536797 -1.818110 14.571489 -4.214746 -0.954021 -10.349077 -4.058473 7.827766 1.929152 -4.552674 -0.855532 -8.745855 -9.288523 -132.655508 -55.581218 166.135672 -5.822719 0.860654 -25.988601 -16.895868 -0.667780 -4.363284 -0.211128 -11.286996 6.967085 125.430960 -54.301059 -165.003152 6.023134 3.008577 -18.497778 -5.325446 -66.420780 8.164736 -156.932578 70.456418 -156.316501 -12.307262 -24.614031 8.694308 0.470880 -1.214173 0.229274 5.487802 -55.318096 -9.225037 176.384701 64.159573 176.013364 -3.249964 -33.800581 5.291878 0.017706 0.144296 0.019608
-35.181828 43.832801 35.603722 -178.543931 -26.458776 -0.755739 -2.894707 16.169066 0.963219 -0.304915 1.641018 0.201583 -0.507837 2.741518 0.342107 -2.509719 14.316546 1.541111 -1.824071 14.564970 -4.222236 -0.954850 -10.359720 -4.062806 7.836192 1.915403 -4.560231 -0.864456 -8.734553 -9.294486 -132.697351 -55.485952 166.198326 -5.810977 0.878140 -25.839703 -16.897730 -0.670411 -4.371410 -0.201584 -11.282182 6.964318 125.443375 -54.303582 -165.006731 6.006622 3.004716 -18.549782 -5.307703 -66.420899 8.151055 -156.952130 70.451437 -156.345116 -12.315505 -24.626511 8.709570 0.471288 -1.211898 0.222668 5.508248 -55.314669 -9.249960 176.387726 64.159936 176.019913 -3.245015 -33.798265 5.290759 0.020216 0.143560 0.019515
-35.184209 43.830635 35.604193 -178.552446 -26.450676 -0.748343 -2.888676 16.160486 0.962607 -0.306927 1.640176 0.209026 -0.510265 2.741274 0.343437 -2.512902 14.315747 1.535264 -1.825060 14.560837 -4.226113 -0.956459 -10.366647 -4.065775 7.845570 1.911210 -4.566464 -0.886496 -8.749957 -9.303403 -132.670084 -55.452752 166.193071 -5.789971 0.836903 -25.654766 -16.901800 -0.669903 -4.365877 -0.183087 -11.281625 6.952454 125.448897 -54.305970 -165.005346 5.984086 2.999751 -18.599572 -5.296074 -66.431973 8.151633 -156.933687 70.448241 -156.335329 -12.319193 -24.636530 8.720520 0.461419 -1.209240 0.217819 5.525503 -55.324627 -9.266549 176.374032 64.158932 176.010015 -3.242066 -33.797483 5.285469 0.017506 0.144833 0.018007
-35.187070 43.828715 35.604439 -178.556232 -26.444513 -0.739688 -2.887822 16.154101 0.957963 -0.306843 1.640036 0.207856 -0.513271 2.742099 0.346732 -2.515747 14.313133 1.537218 -1.824828 14.559194 -4.231731 -0.956955 -10.373945 -4.068151 7.854357 1.906544 -4.573564 -0.910132 -8.766759 -9.315876 -132.636505 -55.420090 166.185250 -5.761844 0.792617 -25.453155 -16.904278 -0.673004 -4.357919 -0.168450 -11.279271 6.940215 125.469736 -54.313450 -165.006308 5.965469 2.991693 -18.648557 -5.279090 -66.439087 8.140710 -156.918974 70.444579 -156.334207 -12.306002 -24.649642 8.733457 0.420820 -1.219637 0.205502 5.539806 -55.331943 -9.285771 176.378926 64.159459 176.014662 -3.232395 -33.796748 5.280434 0.018872 0.146643 0.015914
-35.190138 43.826977 35.604724 -178.560400 -26.438573 -0.729151 -2.889811 16.148442 0.952093 -0.307141 1.640034 0.208017 -0.512906 2.742654 0.345945 -2.525565 14.312798 1.547509 -1.818567 14.557046 -4.248000 -0.958714 -10.380410 -4.069967 7.877168 1.881812 -4.590194 -0.953194 -8.796977 -9.354966 -132.561230 -55.349138 166.141470 -5.737321 0.788707 -25.248960 -16.919428 -0.685400 -4.342771 -0.125221 -11.275560 6.913863 125.474143 -54.320657 -165.003153 5.937790 2.982331 -18.688472 -5.256638 -66.446115 8.123820 -156.899737 70.444216 -156.315519 -12.333939 -24.657519 8.739131 0.427020 -1.213325 0.208327 5.555382 -55.338501 -9.304794 176.376269 64.160423 176.010593 -3.230551 -33.796240 5.280308 0.019453 0.148873 0.014313
-35.191571 43.825584 35.604910 -178.560936 -26.433523 -0.729322 -2.897547 16.148552 0.955310 -0.302678 1.637291 0.206361 -0.515175 2.741727 0.345642 -2.530077 14.310558 1.549211 -1.814163 14.554089 -4.252769 -0.964697 -10.395787 -4.080969 7.887025 1.876972 -4.597321 -0.958394 -8.819858 -9.379268 -132.560501 -55.285662 166.163616 -5.705206 0.774228 -25.052186 -16.923290 -0.690689 -4.335863 -0.095222 -11.280460 6.932892 125.463433 -54.311816 -164.980437 5.918249 2.972468 -18.725307 -5.255969 -66.450882 8.124817 -156.894575 70.444885 -156.310197 -12.342166 -24.658451 8.739530 0.429233 -1.212498 0.210573 5.552668 -55.347564 -9.303774 176.375805 64.158467 176.008194 -3.231104 -33.792531 5.281314 0.021531 0.147477 0.011935
-35.191485 43.824177 35.605819 -178.568252 -26.424012 -0.734278 -2.895204 16.141252 0.964971 -0.301764 1.637458 0.206312 -0.519067 2.741043 0.346820 -2.533269 14.308911 1.549543 -1.813333 14.547204 -4.259372 -0.960825 -10.398690 -4.086294 7.897460 1.871235 -4.606032 -0.957850 -8.827210 -9.390487 -132.687199 -55.181411 166.319032 -5.708963 0.811222 -24.877340 -16.922656 -0.695797 -4.331930 -0.081157 -11.281504 6.939047 125.498749 -54.319213 -164.992008 5.903257 2.962814 -18.760593 -5.264236 -66.462668 8.144667 -156.878492 70.446160 -156.295401 -12.331757 -24.641578 8.724706 0.429150 -1.229477 0.219681 5.542272 -55.362144 -9.290066 176.367045 64.155282 175.999686 -3.227103 -33.792316 5.275463 0.020211 0.147593 0.009939
-35.189712 43.822365 35.608265 -178.590943 -26.404672 -0.740466 -2.879493 16.123298 0.983624 -0.298110 1.639057 0.204968 -0.524013 2.739391 0.348804 -2.537617 14.308309 1.550745 -1.809769 14.543640 -4.267485 -0.957712 -10.406009 -4.090311 7.901430 1.856726 -4.625612 -0.947092 -8.825240 -9.393769 -132.782493 -55.112985 166.437468 -5.696419 0.818123 -24.680242 -16.913374 -0.699571 -4.336959 -0.080416 -11.287919 6.965197 125.611765 -54.339824 -165.068381 5.941612 2.949168 -18.787721 -5.278751 -66.479135 8.185274 -156.838140 70.453515 -156.259481 -12.302662 -24.633983 8.717532 0.410297 -1.227552 0.209115 5.535936 -55.386497 -9.261616 176.372363 64.151370 176.005822 -3.219941 -33.797309 5.264663 0.018896 0.150950 0.012864
-35.186720 43.820214 35.612073 -178.619313 -26.376581 -0.748740 -2.853247 16.096180 1.007235 -0.304510 1.638512 0.207314 -0.522639 2.740989 0.348188 -2.544546 14.307890 1.550161 -1.803855 14.536513 -4.270366 -0.953396 -10.412957 -4.098019 7.911437 1.853757 -4.636536 -0.936737 -8.848548 -9.421540 -132.837611 -55.056881 166.501430 -5.671019 0.818615 -24.462050 -16.917197 -0.708730 -4.332856 -0.062696 -11.291355 6.985929 125.659933 -54.338626 -165.096358 5.966307 2.945239 -18.796713 -5.307286 -66.505160 8.242983 -156.817964 70.454725 -156.239620 -12.263339 -24.664923 8.712974 0.361207 -1.193232 0.190915 5.534033 -55.421443 -9.231450 176.370076 64.146120 176.009192 -3.210948 -33.800785 5.251950 0.020113 0.152720 0.012609
-35.188785 43.820410 35.611698 -178.615560 -26.377006 -0.738580 -2.864736 16.096524 0.995436 -0.309751 1.639115 0.209054 -0.519662 2.742555 0.346571 -2.553177 14.307566 1.548037 -1.799639 14.529325 -4.270641 -0.948569 -10.424216 -4.106957 7.923471 1.842905 -4.648137 -0.917658 -8.867047 -9.449535 -132.910770 -55.006634 166.568781 -5.639797 0.822146 -24.235042 -16.923367 -0.714802 -4.325269 -0.040416 -11.292317 6.983713 125.715044 -54.347724 -165.142954 5.981173 2.944307 -18.806257 -5.283273 -66.505374 8.214269 -156.794602 70.452912 -156.213119 -12.287470 -24.657880 8.716811 0.380994 -1.192852 0.192090 5.540576 -55.419855 -9.251533 176.360566 64.149362 175.998935 -3.207693 -33.800399 5.245456 0.018940 0.154641 0.012830
-35.186200 43.820652 35.611717 -178.614777 -26.374602 -0.751326 -2.867918 16.101024 1.010674 -0.311409 1.639341 0.208903 -0.515774 2.738602 0.343049 -2.559671 14.308963 1.548162 -1.809797 14.511167 -4.276337 -0.937513 -10.427904 -4.113834 7.928334 1.813345 -4.669550 -0.896624 -8.873423 -9.472003 -132.988082 -54.962054 166.635383 -5.604453 0.825937 -24.004120 -16.931916 -0.719292 -4.320105 -0.027997 -11.301177 7.016197 125.702941 -54.326856 -165.113320 5.902751 2.961019 -18.874521 -5.296858 -66.505516 8.222998 -156.816094 70.455240 -156.229763 -12.238469 -24.649522 8.703430 0.347273 -1.204305 0.183529 5.518207 -55.425300 -9.228530 176.360665 64.147222 176.003246 -3.204757 -33.804427 5.240290 0.019542 0.157665 0.010316
-35.184757 43.820924 35.612015 -178.616250 -26.370843 -0.752618 -2.869880 16.100787 1.013775 -0.312823 1.639204 0.210498 -0.511804 2.736274 0.339229 -2.563505 14.311789 1.550909 -1.815608 14.500777 -4.280062 -0.940974 -10.437315 -4.119740 7.935288 1.792046 -4.685390 -0.888330 -8.935209 -9.546908 -132.973041 -54.920378 166.600121 -5.567124 0.825290 -23.775887 -16.971585 -0.728890 -4.296827 0.012784 -11.308704 7.029963 125.756114 -54.320906 -165.143808 5.887005 2.967054 -18.912811 -5.296560 -66.508056 8.224214 -156.831003 70.457026 -156.239877 -12.238643 -24.651810 8.705394 0.383139 -1.192511 0.176863 5.509704 -55.430806 -9.226052 176.350032 64.147406 175.996104 -3.195429 -33.805119 5.229698 0.019554 0.158061 0.007898
